
<svg width="48" height="48" viewBox="0 0 48 48" fill="none" xmlns="http://www.w3.org/2000/svg">
  <path d="M24.0001 7C20.6667 7 17.3334 8.33333 15.0001 11C12.6667 13.6667 11.3334 17.3333 11.3334 21C11.3334 21.3333 11.3334 21.6667 11.3334 22C10.0001 23 8.66675 24.3333 7.66675 26C6.33341 28.3333 6.00008 30.6667 6.00008 33C6.00008 36 7.00008 38.6667 9.33341 40.6667C11.6667 42.6667 14.3334 43.6667 17.3334 43.6667C19.3334 43.6667 21.3334 43 23.0001 42C23.3334 42 23.6667 42 24.0001 42C24.3334 42 24.6667 42 25.0001 42C26.6667 43 28.6667 43.6667 30.6667 43.6667C33.6667 43.6667 36.3334 42.6667 38.6667 40.6667C41.0001 38.6667 42.0001 36 42.0001 33C42.0001 30.6667 41.6667 28.3333 40.3334 26C39.3334 24.3333 38.0001 23 36.6667 22C36.6667 21.6667 36.6667 21.3333 36.6667 21C36.6667 17.3333 35.3334 13.6667 33.0001 11C30.6667 8.33333 27.3334 7 24.0001 7Z" fill="#766A6A"/>
  <path d="M24.0001 12C22.0001 12 20.3334 12.6667 19.0001 14C17.6667 15.3333 17.0001 17 17.0001 19C17.0001 21 17.6667 22.6667 19.0001 24C20.3334 25.3333 22.0001 26 24.0001 26C26.0001 26 27.6667 25.3333 29.0001 24C30.3334 22.6667 31.0001 21 31.0001 19C31.0001 17 30.3334 15.3333 29.0001 14C27.6667 12.6667 26.0001 12 24.0001 12Z" fill="#766A6A"/>
  <path d="M21.0001 19C20.3334 19 19.6667 18.6667 19.3334 18C19.0001 17.3333 19.0001 16.6667 19.3334 16C19.6667 15.3333 20.3334 15 21.0001 15C21.6667 15 22.3334 15.3333 22.6667 16C23.0001 16.6667 23.0001 17.3333 22.6667 18C22.3334 18.6667 21.6667 19 21.0001 19Z" fill="#766A6A"/>
  <path d="M27.0001 19C26.3334 19 25.6667 18.6667 25.3334 18C25.0001 17.3333 25.0001 16.6667 25.3334 16C25.6667 15.3333 26.3334 15 27.0001 15C27.6667 15 28.3334 15.3333 28.6667 16C29.0001 16.6667 29.0001 17.3333 28.6667 18C28.3334 18.6667 27.6667 19 27.0001 19Z" fill="#766A6A"/>
  <path d="M24.0001 26V31C22.0001 31 20.3334 31.6667 19.0001 33C17.6667 34.3333 17.0001 36 17.0001 38H31.0001C31.0001 36 30.3334 34.3333 29.0001 33C27.6667 31.6667 26.0001 31 24.0001 31V26Z" fill="#766A6A"/>
</svg>
